<svg width="29" height="26" viewBox="0 0 29 26" fill="none" xmlns="http://www.w3.org/2000/svg">
<path d="M3.8125 25.5938C3.04171 25.5938 2.3025 25.2876 1.75747 24.7425C1.21244 24.1975 0.90625 23.4583 0.90625 22.6875V3.3125C0.90625 2.54171 1.21244 1.8025 1.75747 1.25747C2.3025 0.712443 3.04171 0.40625 3.8125 0.40625H19.3125C19.5694 0.40625 19.8158 0.508314 19.9975 0.68999C20.1792 0.871666 20.2812 1.11807 20.2812 1.375C20.2812 1.63193 20.1792 1.87833 19.9975 2.06001C19.8158 2.24169 19.5694 2.34375 19.3125 2.34375H3.8125C3.55557 2.34375 3.30917 2.44581 3.12749 2.62749C2.94581 2.80917 2.84375 3.05557 2.84375 3.3125V22.6875C2.84375 22.9444 2.94581 23.1908 3.12749 23.3725C3.30917 23.5542 3.55557 23.6562 3.8125 23.6562H23.1875C23.4444 23.6562 23.6908 23.5542 23.8725 23.3725C24.0542 23.1908 24.1562 22.9444 24.1562 22.6875V13C24.1562 12.7431 24.2583 12.4967 24.44 12.315C24.6217 12.1333 24.8681 12.0312 25.125 12.0312C25.3819 12.0312 25.6283 12.1333 25.81 12.315C25.9917 12.4967 26.0938 12.7431 26.0938 13V22.6875C26.0938 23.4583 25.7876 24.1975 25.2425 24.7425C24.6975 25.2876 23.9583 25.5938 23.1875 25.5938H3.8125Z" fill="#27C498"/>
<path d="M14.1859 17.5609L27.7484 3.99838C27.8384 3.90831 27.9099 3.80138 27.9586 3.6837C28.0074 3.56601 28.0325 3.43988 28.0325 3.3125C28.0325 3.18512 28.0074 3.05899 27.9586 2.94131C27.9099 2.82363 27.8384 2.7167 27.7484 2.62663C27.6583 2.53656 27.5514 2.46511 27.4337 2.41636C27.316 2.36762 27.1899 2.34253 27.0625 2.34253C26.9351 2.34253 26.809 2.36762 26.6913 2.41636C26.5736 2.46511 26.4667 2.53656 26.3766 2.62663L13.5 15.5052L8.37338 10.3766C8.28331 10.2866 8.17638 10.2151 8.0587 10.1664C7.94101 10.1176 7.81488 10.0925 7.6875 10.0925C7.56012 10.0925 7.43399 10.1176 7.31631 10.1664C7.19863 10.2151 7.0917 10.2866 7.00163 10.3766C6.91156 10.4667 6.84011 10.5736 6.79136 10.6913C6.74262 10.809 6.71753 10.9351 6.71753 11.0625C6.71753 11.1899 6.74262 11.316 6.79136 11.4337C6.84011 11.5514 6.91156 11.6583 7.00163 11.7484L12.8141 17.5609C12.9041 17.6511 13.011 17.7227 13.1287 17.7715C13.2464 17.8203 13.3726 17.8455 13.5 17.8455C13.6274 17.8455 13.7536 17.8203 13.8713 17.7715C13.989 17.7227 14.0959 17.6511 14.1859 17.5609Z" fill="#27C498"/>
</svg>
